<?xml version="1.0" encoding="utf-8"?>
<!-- Generator: Adobe Illustrator 19.0.0, SVG Export Plug-In . SVG Version: 6.00 Build 0)  -->
<svg version="1.1" id="Layer_1" xmlns="http://www.w3.org/2000/svg" xmlns:xlink="http://www.w3.org/1999/xlink" x="0px" y="0px"
	 viewBox="-287 340.9 20 160" style="enable-background:new -287 340.9 20 160;" xml:space="preserve">
<style type="text/css">
	.st0{fill:#605D5A;}
	.st1{display:none;fill:#A3550F;}
</style>
<rect x="-505" y="777.8" class="st0" width="2" height="24"/>
<rect x="-505" y="681.8" class="st0" width="2" height="64"/>
<rect x="-505" y="777.8" class="st0" width="2" height="64"/>
<path class="st0" d="M-504,754.8c-3.9,0-7,3.1-7,7c0,3.9,3.1,7,7,7s7-3.1,7-7C-497,757.9-500.1,754.8-504,754.8z M-504,766.8
	c-2.8,0-5-2.2-5-5s2.2-5,5-5s5,2.2,5,5C-499,764.6-501.2,766.8-504,766.8z"/>
<rect x="-278" y="433.9" class="st0" width="2" height="67"/>
<rect x="-278" y="340.9" class="st0" width="2" height="66.6"/>
<rect x="-245.8" y="405.5" class="st1" width="20" height="8.4"/>
<rect x="-263.9" y="340.9" class="st1" width="30.6" height="160"/>
<path class="st0" d="M-277,413.9c-3.9,0-7,3.1-7,7s3.1,7,7,7s7-3.1,7-7S-273.1,413.9-277,413.9z"/>
</svg>
