<?xml version="1.0" encoding="utf-8"?>
<!-- Generator: Adobe Illustrator 19.0.0, SVG Export Plug-In . SVG Version: 6.00 Build 0)  -->
<svg version="1.1" id="Layer_1" xmlns="http://www.w3.org/2000/svg" xmlns:xlink="http://www.w3.org/1999/xlink" x="0px" y="0px"
	 viewBox="-227 340.9 20 160" style="enable-background:new -227 340.9 20 160;" xml:space="preserve">
<style type="text/css">
	.st0{fill:#605D5A;}
</style>
<rect x="-218" y="436.9" class="st0" width="2" height="24"/>
<rect x="-218" y="340.9" class="st0" width="2" height="64"/>
<rect x="-218" y="436.9" class="st0" width="2" height="64"/>
<path class="st0" d="M-217,413.9c-3.9,0-7,3.1-7,7c0,3.9,3.1,7,7,7s7-3.1,7-7C-210,417-213.1,413.9-217,413.9z M-217,425.9
	c-2.8,0-5-2.2-5-5c0-2.8,2.2-5,5-5s5,2.2,5,5C-212,423.7-214.2,425.9-217,425.9z"/>
</svg>
